<mxfile host="app.diagrams.net" modified="2023-08-29T05:51:48.476Z" agent="Mozilla/5.0 (Windows NT 10.0; Win64; x64) AppleWebKit/537.36 (KHTML, like Gecko) Chrome/116.0.0.0 Safari/537.36" version="21.6.8" etag="zw8Yg1ThfIBmo67HdUVb" type="github">
  <diagram name="Page-1" id="FNxQfmEzru0Fzd86ed4L">
    <mxGraphModel>
      <root>
        <mxCell id="0" />
        <mxCell id="1" parent="0" />
      </root>
    </mxGraphModel>
  </diagram>
</mxfile>
